G04 #@! TF.GenerationSoftware,KiCad,Pcbnew,6.0.0-rc1-unknown-bb2e402~66~ubuntu16.04.1*
G04 #@! TF.CreationDate,2019-01-25T18:37:06+01:00
G04 #@! TF.ProjectId,trollfinger-breakout,74726f6c-6c66-4696-9e67-65722d627265,rev?*
G04 #@! TF.SameCoordinates,PX848f8c0PY66ff300*
G04 #@! TF.FileFunction,Copper,L1,Top*
G04 #@! TF.FilePolarity,Positive*
%FSLAX46Y46*%
G04 Gerber Fmt 4.6, Leading zero omitted, Abs format (unit mm)*
G04 Created by KiCad (PCBNEW 6.0.0-rc1-unknown-bb2e402~66~ubuntu16.04.1) date fre 25 jan 2019 18:37:06*
%MOMM*%
%LPD*%
G04 APERTURE LIST*
%ADD10O,1.700000X1.700000*%
%ADD11R,1.700000X1.700000*%
%ADD12R,0.600000X3.500000*%
%ADD13C,1.000000*%
%ADD14C,0.500000*%
%ADD15C,0.800000*%
%ADD16C,0.250000*%
G04 APERTURE END LIST*
D10*
X12290000Y24140000D03*
X9750000Y24140000D03*
X12290000Y26680000D03*
X9750000Y26680000D03*
X12290000Y29220000D03*
X9750000Y29220000D03*
X12290000Y31760000D03*
X9750000Y31760000D03*
X12290000Y34300000D03*
X9750000Y34300000D03*
X12290000Y36840000D03*
X9750000Y36840000D03*
X12290000Y39380000D03*
X9750000Y39380000D03*
X12290000Y41920000D03*
X9750000Y41920000D03*
X12290000Y44460000D03*
X9750000Y44460000D03*
X12290000Y47000000D03*
D11*
X9750000Y47000000D03*
D12*
X7196626Y2840000D03*
X7996626Y2840000D03*
X8796626Y2840000D03*
X9596626Y2840000D03*
X10396626Y2840000D03*
X11196626Y2840000D03*
X11996626Y2840000D03*
X12796626Y2840000D03*
X13596626Y2840000D03*
X14396626Y2840000D03*
D13*
X5700000Y23200000D03*
X11900000Y20900000D03*
X19000000Y48000000D03*
X2000000Y48000000D03*
X20000000Y22000000D03*
X1000000Y22000000D03*
X6000000Y37000000D03*
X6000000Y42000000D03*
X15000000Y37000000D03*
X15000000Y24000000D03*
X15000000Y32000000D03*
X7000000Y29000000D03*
D14*
X7100000Y26570000D02*
X9750000Y29220000D01*
X7196626Y2840000D02*
X7100000Y2936626D01*
X7100000Y2936626D02*
X7100000Y26570000D01*
X9596626Y2840000D02*
X8796626Y2840000D01*
X8796626Y2840000D02*
X7996626Y2840000D01*
X12530000Y32000000D02*
X12290000Y31760000D01*
D15*
X8796626Y5403374D02*
X8000000Y6200000D01*
X8796626Y2840000D02*
X8796626Y5403374D01*
X8000000Y24930000D02*
X9750000Y26680000D01*
X8000000Y6200000D02*
X8000000Y24930000D01*
X9750000Y26680000D02*
X12290000Y26680000D01*
X12290000Y31760000D02*
X13800000Y30250000D01*
X13800000Y30250000D02*
X13800000Y28190000D01*
X13800000Y28190000D02*
X12290000Y26680000D01*
D14*
X9400000Y23790000D02*
X9750000Y24140000D01*
X9400000Y6100000D02*
X9400000Y23790000D01*
X10396626Y2840000D02*
X10396626Y5103374D01*
X10396626Y5103374D02*
X9400000Y6100000D01*
X11196626Y2840000D02*
X11196626Y20196626D01*
X15000000Y24000000D02*
X15000000Y24000000D01*
X11196626Y20196626D02*
X11900000Y20900000D01*
X11900000Y20900000D02*
X15000000Y24000000D01*
X15000000Y24000000D02*
X15000000Y32000000D01*
X15000000Y32000000D02*
X15000000Y32000000D01*
X11996626Y18196833D02*
X11999793Y18200000D01*
X15420000Y39380000D02*
X12290000Y39380000D01*
X16400000Y38400000D02*
X15420000Y39380000D01*
X11996626Y2840000D02*
X11996626Y18196833D01*
X11999793Y18200000D02*
X11999793Y19199793D01*
X11999793Y19199793D02*
X16400000Y23600000D01*
X16400000Y23600000D02*
X16400000Y38400000D01*
X15780000Y41920000D02*
X13492081Y41920000D01*
X17300000Y40400000D02*
X15780000Y41920000D01*
X13492081Y41920000D02*
X12290000Y41920000D01*
X17300000Y23500000D02*
X17300000Y40400000D01*
X12796626Y2840000D02*
X12796626Y18996626D01*
X12796626Y18996626D02*
X17300000Y23500000D01*
X18200000Y42800000D02*
X16540000Y44460000D01*
X13492081Y44460000D02*
X12290000Y44460000D01*
X13596626Y2840000D02*
X13596626Y18796626D01*
X16540000Y44460000D02*
X13492081Y44460000D01*
X18200000Y23400000D02*
X18200000Y42800000D01*
X13596626Y18796626D02*
X18200000Y23400000D01*
X19100000Y43200000D02*
X15300000Y47000000D01*
X19100000Y23300000D02*
X19100000Y43200000D01*
X15300000Y47000000D02*
X12290000Y47000000D01*
X14396626Y2840000D02*
X14396626Y18596626D01*
X14396626Y18596626D02*
X19100000Y23300000D01*
D16*
G36*
X20350001Y21395596D02*
G01*
X16379136Y19341700D01*
X19688320Y22650884D01*
X19721712Y22678288D01*
X19831056Y22811524D01*
X19912305Y22963532D01*
X19957198Y23111523D01*
X19962339Y23128469D01*
X19979233Y23299999D01*
X19975000Y23342978D01*
X19975000Y43157021D01*
X19979233Y43200000D01*
X19962339Y43371530D01*
X19912305Y43536468D01*
X19831056Y43688476D01*
X19797845Y43728944D01*
X19721712Y43821712D01*
X19688325Y43849112D01*
X15949117Y47588319D01*
X15921712Y47621712D01*
X15788476Y47731056D01*
X15636468Y47812305D01*
X15471530Y47862339D01*
X15342979Y47875000D01*
X15300000Y47879233D01*
X15257021Y47875000D01*
X13480029Y47875000D01*
X13338028Y48048028D01*
X13113431Y48232351D01*
X12857189Y48369315D01*
X12579150Y48453657D01*
X12362452Y48475000D01*
X12217548Y48475000D01*
X12000850Y48453657D01*
X11722811Y48369315D01*
X11466569Y48232351D01*
X11241972Y48048028D01*
X11206254Y48004506D01*
X11180219Y48090334D01*
X11122183Y48198911D01*
X11044080Y48294080D01*
X10948911Y48372183D01*
X10840334Y48430219D01*
X10722521Y48465957D01*
X10600000Y48478024D01*
X8900000Y48478024D01*
X8777479Y48465957D01*
X8659666Y48430219D01*
X8551089Y48372183D01*
X8455920Y48294080D01*
X8377817Y48198911D01*
X8319781Y48090334D01*
X8284043Y47972521D01*
X8271976Y47850000D01*
X8271976Y46150000D01*
X8284043Y46027479D01*
X8319781Y45909666D01*
X8377817Y45801089D01*
X8455920Y45705920D01*
X8551089Y45627817D01*
X8659666Y45569781D01*
X8745494Y45543746D01*
X8701972Y45508028D01*
X8517649Y45283431D01*
X8380685Y45027189D01*
X8296343Y44749150D01*
X8267864Y44460000D01*
X8296343Y44170850D01*
X8380685Y43892811D01*
X8517649Y43636569D01*
X8701972Y43411972D01*
X8926569Y43227649D01*
X9005810Y43185294D01*
X8875504Y43107812D01*
X8660577Y42914383D01*
X8487515Y42682740D01*
X8362970Y42421786D01*
X8317955Y42273372D01*
X8437188Y42045000D01*
X9625000Y42045000D01*
X9625000Y42065000D01*
X9875000Y42065000D01*
X9875000Y42045000D01*
X9895000Y42045000D01*
X9895000Y41795000D01*
X9875000Y41795000D01*
X9875000Y41775000D01*
X9625000Y41775000D01*
X9625000Y41795000D01*
X8437188Y41795000D01*
X8317955Y41566628D01*
X8362970Y41418214D01*
X8487515Y41157260D01*
X8660577Y40925617D01*
X8875504Y40732188D01*
X9005810Y40654706D01*
X8926569Y40612351D01*
X8701972Y40428028D01*
X8517649Y40203431D01*
X8380685Y39947189D01*
X8296343Y39669150D01*
X8267864Y39380000D01*
X8296343Y39090850D01*
X8380685Y38812811D01*
X8517649Y38556569D01*
X8701972Y38331972D01*
X8926569Y38147649D01*
X9005810Y38105294D01*
X8875504Y38027812D01*
X8660577Y37834383D01*
X8487515Y37602740D01*
X8362970Y37341786D01*
X8317955Y37193372D01*
X8437188Y36965000D01*
X9625000Y36965000D01*
X9625000Y36985000D01*
X9875000Y36985000D01*
X9875000Y36965000D01*
X12165000Y36965000D01*
X12165000Y36985000D01*
X12415000Y36985000D01*
X12415000Y36965000D01*
X13602812Y36965000D01*
X13722045Y37193372D01*
X13677030Y37341786D01*
X13552485Y37602740D01*
X13379423Y37834383D01*
X13164496Y38027812D01*
X13034190Y38105294D01*
X13113431Y38147649D01*
X13338028Y38331972D01*
X13480029Y38505000D01*
X15057564Y38505000D01*
X15525001Y38037563D01*
X15525000Y23962436D01*
X11411469Y19848905D01*
X11378082Y19821505D01*
X11268738Y19688269D01*
X11262105Y19675859D01*
X11187488Y19536260D01*
X11137454Y19371322D01*
X11120560Y19199793D01*
X11124794Y19156805D01*
X11124793Y18271968D01*
X11117393Y18196833D01*
X11121627Y18153844D01*
X11121626Y5599229D01*
X11018338Y5725086D01*
X10984951Y5752486D01*
X10275000Y6462436D01*
X10275000Y22757887D01*
X10317189Y22770685D01*
X10573431Y22907649D01*
X10798028Y23091972D01*
X10982351Y23316569D01*
X11020000Y23387005D01*
X11057649Y23316569D01*
X11241972Y23091972D01*
X11466569Y22907649D01*
X11722811Y22770685D01*
X12000850Y22686343D01*
X12217548Y22665000D01*
X12362452Y22665000D01*
X12579150Y22686343D01*
X12857189Y22770685D01*
X13113431Y22907649D01*
X13338028Y23091972D01*
X13522351Y23316569D01*
X13659315Y23572811D01*
X13743657Y23850850D01*
X13772136Y24140000D01*
X13743657Y24429150D01*
X13659315Y24707189D01*
X13522351Y24963431D01*
X13338028Y25188028D01*
X13113431Y25372351D01*
X13042995Y25410000D01*
X13113431Y25447649D01*
X13338028Y25631972D01*
X13522351Y25856569D01*
X13659315Y26112811D01*
X13743657Y26390850D01*
X13772136Y26680000D01*
X13769216Y26709648D01*
X14489181Y27429612D01*
X14528291Y27461709D01*
X14656380Y27617785D01*
X14751558Y27795852D01*
X14810169Y27989065D01*
X14825000Y28139649D01*
X14825000Y28139659D01*
X14829958Y28189999D01*
X14825000Y28240339D01*
X14825000Y30199661D01*
X14829958Y30250001D01*
X14825000Y30300341D01*
X14825000Y30300351D01*
X14810169Y30450935D01*
X14751558Y30644148D01*
X14656380Y30822215D01*
X14528291Y30978291D01*
X14489181Y31010388D01*
X13769216Y31730352D01*
X13772136Y31760000D01*
X13743657Y32049150D01*
X13659315Y32327189D01*
X13522351Y32583431D01*
X13338028Y32808028D01*
X13113431Y32992351D01*
X13042995Y33030000D01*
X13113431Y33067649D01*
X13338028Y33251972D01*
X13522351Y33476569D01*
X13659315Y33732811D01*
X13743657Y34010850D01*
X13772136Y34300000D01*
X13743657Y34589150D01*
X13659315Y34867189D01*
X13522351Y35123431D01*
X13338028Y35348028D01*
X13113431Y35532351D01*
X13034190Y35574706D01*
X13164496Y35652188D01*
X13379423Y35845617D01*
X13552485Y36077260D01*
X13677030Y36338214D01*
X13722045Y36486628D01*
X13602812Y36715000D01*
X12415000Y36715000D01*
X12415000Y36695000D01*
X12165000Y36695000D01*
X12165000Y36715000D01*
X9875000Y36715000D01*
X9875000Y36695000D01*
X9625000Y36695000D01*
X9625000Y36715000D01*
X8437188Y36715000D01*
X8317955Y36486628D01*
X8362970Y36338214D01*
X8487515Y36077260D01*
X8660577Y35845617D01*
X8875504Y35652188D01*
X9005810Y35574706D01*
X8926569Y35532351D01*
X8701972Y35348028D01*
X8517649Y35123431D01*
X8380685Y34867189D01*
X8296343Y34589150D01*
X8267864Y34300000D01*
X8296343Y34010850D01*
X8380685Y33732811D01*
X8517649Y33476569D01*
X8701972Y33251972D01*
X8926569Y33067649D01*
X8997005Y33030000D01*
X8926569Y32992351D01*
X8701972Y32808028D01*
X8517649Y32583431D01*
X8380685Y32327189D01*
X8296343Y32049150D01*
X8267864Y31760000D01*
X8296343Y31470850D01*
X8380685Y31192811D01*
X8517649Y30936569D01*
X8701972Y30711972D01*
X8926569Y30527649D01*
X8997005Y30490000D01*
X8926569Y30452351D01*
X8701972Y30268028D01*
X8517649Y30043431D01*
X8380685Y29787189D01*
X8296343Y29509150D01*
X8267864Y29220000D01*
X8289804Y28997241D01*
X6511676Y27219112D01*
X6478289Y27191712D01*
X6368945Y27058476D01*
X6325516Y26977226D01*
X6287695Y26906467D01*
X6237661Y26741529D01*
X6220767Y26570000D01*
X6225001Y26527011D01*
X6225001Y18614222D01*
X650000Y21401722D01*
X650000Y49350000D01*
X20350000Y49350000D01*
X20350001Y21395596D01*
X20350001Y21395596D01*
G37*
X20350001Y21395596D02*
X16379136Y19341700D01*
X19688320Y22650884D01*
X19721712Y22678288D01*
X19831056Y22811524D01*
X19912305Y22963532D01*
X19957198Y23111523D01*
X19962339Y23128469D01*
X19979233Y23299999D01*
X19975000Y23342978D01*
X19975000Y43157021D01*
X19979233Y43200000D01*
X19962339Y43371530D01*
X19912305Y43536468D01*
X19831056Y43688476D01*
X19797845Y43728944D01*
X19721712Y43821712D01*
X19688325Y43849112D01*
X15949117Y47588319D01*
X15921712Y47621712D01*
X15788476Y47731056D01*
X15636468Y47812305D01*
X15471530Y47862339D01*
X15342979Y47875000D01*
X15300000Y47879233D01*
X15257021Y47875000D01*
X13480029Y47875000D01*
X13338028Y48048028D01*
X13113431Y48232351D01*
X12857189Y48369315D01*
X12579150Y48453657D01*
X12362452Y48475000D01*
X12217548Y48475000D01*
X12000850Y48453657D01*
X11722811Y48369315D01*
X11466569Y48232351D01*
X11241972Y48048028D01*
X11206254Y48004506D01*
X11180219Y48090334D01*
X11122183Y48198911D01*
X11044080Y48294080D01*
X10948911Y48372183D01*
X10840334Y48430219D01*
X10722521Y48465957D01*
X10600000Y48478024D01*
X8900000Y48478024D01*
X8777479Y48465957D01*
X8659666Y48430219D01*
X8551089Y48372183D01*
X8455920Y48294080D01*
X8377817Y48198911D01*
X8319781Y48090334D01*
X8284043Y47972521D01*
X8271976Y47850000D01*
X8271976Y46150000D01*
X8284043Y46027479D01*
X8319781Y45909666D01*
X8377817Y45801089D01*
X8455920Y45705920D01*
X8551089Y45627817D01*
X8659666Y45569781D01*
X8745494Y45543746D01*
X8701972Y45508028D01*
X8517649Y45283431D01*
X8380685Y45027189D01*
X8296343Y44749150D01*
X8267864Y44460000D01*
X8296343Y44170850D01*
X8380685Y43892811D01*
X8517649Y43636569D01*
X8701972Y43411972D01*
X8926569Y43227649D01*
X9005810Y43185294D01*
X8875504Y43107812D01*
X8660577Y42914383D01*
X8487515Y42682740D01*
X8362970Y42421786D01*
X8317955Y42273372D01*
X8437188Y42045000D01*
X9625000Y42045000D01*
X9625000Y42065000D01*
X9875000Y42065000D01*
X9875000Y42045000D01*
X9895000Y42045000D01*
X9895000Y41795000D01*
X9875000Y41795000D01*
X9875000Y41775000D01*
X9625000Y41775000D01*
X9625000Y41795000D01*
X8437188Y41795000D01*
X8317955Y41566628D01*
X8362970Y41418214D01*
X8487515Y41157260D01*
X8660577Y40925617D01*
X8875504Y40732188D01*
X9005810Y40654706D01*
X8926569Y40612351D01*
X8701972Y40428028D01*
X8517649Y40203431D01*
X8380685Y39947189D01*
X8296343Y39669150D01*
X8267864Y39380000D01*
X8296343Y39090850D01*
X8380685Y38812811D01*
X8517649Y38556569D01*
X8701972Y38331972D01*
X8926569Y38147649D01*
X9005810Y38105294D01*
X8875504Y38027812D01*
X8660577Y37834383D01*
X8487515Y37602740D01*
X8362970Y37341786D01*
X8317955Y37193372D01*
X8437188Y36965000D01*
X9625000Y36965000D01*
X9625000Y36985000D01*
X9875000Y36985000D01*
X9875000Y36965000D01*
X12165000Y36965000D01*
X12165000Y36985000D01*
X12415000Y36985000D01*
X12415000Y36965000D01*
X13602812Y36965000D01*
X13722045Y37193372D01*
X13677030Y37341786D01*
X13552485Y37602740D01*
X13379423Y37834383D01*
X13164496Y38027812D01*
X13034190Y38105294D01*
X13113431Y38147649D01*
X13338028Y38331972D01*
X13480029Y38505000D01*
X15057564Y38505000D01*
X15525001Y38037563D01*
X15525000Y23962436D01*
X11411469Y19848905D01*
X11378082Y19821505D01*
X11268738Y19688269D01*
X11262105Y19675859D01*
X11187488Y19536260D01*
X11137454Y19371322D01*
X11120560Y19199793D01*
X11124794Y19156805D01*
X11124793Y18271968D01*
X11117393Y18196833D01*
X11121627Y18153844D01*
X11121626Y5599229D01*
X11018338Y5725086D01*
X10984951Y5752486D01*
X10275000Y6462436D01*
X10275000Y22757887D01*
X10317189Y22770685D01*
X10573431Y22907649D01*
X10798028Y23091972D01*
X10982351Y23316569D01*
X11020000Y23387005D01*
X11057649Y23316569D01*
X11241972Y23091972D01*
X11466569Y22907649D01*
X11722811Y22770685D01*
X12000850Y22686343D01*
X12217548Y22665000D01*
X12362452Y22665000D01*
X12579150Y22686343D01*
X12857189Y22770685D01*
X13113431Y22907649D01*
X13338028Y23091972D01*
X13522351Y23316569D01*
X13659315Y23572811D01*
X13743657Y23850850D01*
X13772136Y24140000D01*
X13743657Y24429150D01*
X13659315Y24707189D01*
X13522351Y24963431D01*
X13338028Y25188028D01*
X13113431Y25372351D01*
X13042995Y25410000D01*
X13113431Y25447649D01*
X13338028Y25631972D01*
X13522351Y25856569D01*
X13659315Y26112811D01*
X13743657Y26390850D01*
X13772136Y26680000D01*
X13769216Y26709648D01*
X14489181Y27429612D01*
X14528291Y27461709D01*
X14656380Y27617785D01*
X14751558Y27795852D01*
X14810169Y27989065D01*
X14825000Y28139649D01*
X14825000Y28139659D01*
X14829958Y28189999D01*
X14825000Y28240339D01*
X14825000Y30199661D01*
X14829958Y30250001D01*
X14825000Y30300341D01*
X14825000Y30300351D01*
X14810169Y30450935D01*
X14751558Y30644148D01*
X14656380Y30822215D01*
X14528291Y30978291D01*
X14489181Y31010388D01*
X13769216Y31730352D01*
X13772136Y31760000D01*
X13743657Y32049150D01*
X13659315Y32327189D01*
X13522351Y32583431D01*
X13338028Y32808028D01*
X13113431Y32992351D01*
X13042995Y33030000D01*
X13113431Y33067649D01*
X13338028Y33251972D01*
X13522351Y33476569D01*
X13659315Y33732811D01*
X13743657Y34010850D01*
X13772136Y34300000D01*
X13743657Y34589150D01*
X13659315Y34867189D01*
X13522351Y35123431D01*
X13338028Y35348028D01*
X13113431Y35532351D01*
X13034190Y35574706D01*
X13164496Y35652188D01*
X13379423Y35845617D01*
X13552485Y36077260D01*
X13677030Y36338214D01*
X13722045Y36486628D01*
X13602812Y36715000D01*
X12415000Y36715000D01*
X12415000Y36695000D01*
X12165000Y36695000D01*
X12165000Y36715000D01*
X9875000Y36715000D01*
X9875000Y36695000D01*
X9625000Y36695000D01*
X9625000Y36715000D01*
X8437188Y36715000D01*
X8317955Y36486628D01*
X8362970Y36338214D01*
X8487515Y36077260D01*
X8660577Y35845617D01*
X8875504Y35652188D01*
X9005810Y35574706D01*
X8926569Y35532351D01*
X8701972Y35348028D01*
X8517649Y35123431D01*
X8380685Y34867189D01*
X8296343Y34589150D01*
X8267864Y34300000D01*
X8296343Y34010850D01*
X8380685Y33732811D01*
X8517649Y33476569D01*
X8701972Y33251972D01*
X8926569Y33067649D01*
X8997005Y33030000D01*
X8926569Y32992351D01*
X8701972Y32808028D01*
X8517649Y32583431D01*
X8380685Y32327189D01*
X8296343Y32049150D01*
X8267864Y31760000D01*
X8296343Y31470850D01*
X8380685Y31192811D01*
X8517649Y30936569D01*
X8701972Y30711972D01*
X8926569Y30527649D01*
X8997005Y30490000D01*
X8926569Y30452351D01*
X8701972Y30268028D01*
X8517649Y30043431D01*
X8380685Y29787189D01*
X8296343Y29509150D01*
X8267864Y29220000D01*
X8289804Y28997241D01*
X6511676Y27219112D01*
X6478289Y27191712D01*
X6368945Y27058476D01*
X6325516Y26977226D01*
X6287695Y26906467D01*
X6237661Y26741529D01*
X6220767Y26570000D01*
X6225001Y26527011D01*
X6225001Y18614222D01*
X650000Y21401722D01*
X650000Y49350000D01*
X20350000Y49350000D01*
X20350001Y21395596D01*
M02*
