M48
INCH,TZ
T1C0.0197
T2C0.0394
%
G90
G05
T1
X394Y8661
X787Y18898
X2244Y9134
X2362Y16535
X2362Y14567
X2756Y11417
X4685Y8228
X5906Y14567
X5906Y12598
X5906Y9449
X7480Y18898
X7874Y8661
T2
X3839Y18504
X3839Y17504
X3839Y16504
X3839Y15504
X3839Y14504
X3839Y13504
X3839Y12504
X3839Y11504
X3839Y10504
X3839Y9504
X4839Y18504
X4839Y17504
X4839Y16504
X4839Y15504
X4839Y14504
X4839Y13504
X4839Y12504
X4839Y11504
X4839Y10504
X4839Y9504
T0
M30
