G04 #@! TF.GenerationSoftware,KiCad,Pcbnew,6.0.0-rc1-unknown-bb2e402~66~ubuntu16.04.1*
G04 #@! TF.CreationDate,2019-01-25T18:37:06+01:00
G04 #@! TF.ProjectId,trollfinger-breakout,74726f6c-6c66-4696-9e67-65722d627265,rev?*
G04 #@! TF.SameCoordinates,PX848f8c0PY66ff300*
G04 #@! TF.FileFunction,Legend,Top*
G04 #@! TF.FilePolarity,Positive*
%FSLAX46Y46*%
G04 Gerber Fmt 4.6, Leading zero omitted, Abs format (unit mm)*
G04 Created by KiCad (PCBNEW 6.0.0-rc1-unknown-bb2e402~66~ubuntu16.04.1) date fre 25 jan 2019 18:37:06*
%MOMM*%
%LPD*%
G04 APERTURE LIST*
%ADD10C,0.150000*%
%ADD11C,0.120000*%
G04 APERTURE END LIST*
D10*
X5128095Y37330000D02*
X5032857Y37377620D01*
X4890000Y37377620D01*
X4747142Y37330000D01*
X4651904Y37234762D01*
X4604285Y37139524D01*
X4556666Y36949048D01*
X4556666Y36806191D01*
X4604285Y36615715D01*
X4651904Y36520477D01*
X4747142Y36425239D01*
X4890000Y36377620D01*
X4985238Y36377620D01*
X5128095Y36425239D01*
X5175714Y36472858D01*
X5175714Y36806191D01*
X4985238Y36806191D01*
X5604285Y36377620D02*
X5604285Y37377620D01*
X6175714Y36377620D01*
X6175714Y37377620D01*
X6651904Y36377620D02*
X6651904Y37377620D01*
X6890000Y37377620D01*
X7032857Y37330000D01*
X7128095Y37234762D01*
X7175714Y37139524D01*
X7223333Y36949048D01*
X7223333Y36806191D01*
X7175714Y36615715D01*
X7128095Y36520477D01*
X7032857Y36425239D01*
X6890000Y36377620D01*
X6651904Y36377620D01*
X4651904Y27217620D02*
X5270952Y27217620D01*
X4937619Y26836667D01*
X5080476Y26836667D01*
X5175714Y26789048D01*
X5223333Y26741429D01*
X5270952Y26646191D01*
X5270952Y26408096D01*
X5223333Y26312858D01*
X5175714Y26265239D01*
X5080476Y26217620D01*
X4794761Y26217620D01*
X4699523Y26265239D01*
X4651904Y26312858D01*
X5556666Y27217620D02*
X5890000Y26217620D01*
X6223333Y27217620D01*
X6461428Y27217620D02*
X7080476Y27217620D01*
X6747142Y26836667D01*
X6890000Y26836667D01*
X6985238Y26789048D01*
X7032857Y26741429D01*
X7080476Y26646191D01*
X7080476Y26408096D01*
X7032857Y26312858D01*
X6985238Y26265239D01*
X6890000Y26217620D01*
X6604285Y26217620D01*
X6509047Y26265239D01*
X6461428Y26312858D01*
X5128095Y42410000D02*
X5032857Y42457620D01*
X4890000Y42457620D01*
X4747142Y42410000D01*
X4651904Y42314762D01*
X4604285Y42219524D01*
X4556666Y42029048D01*
X4556666Y41886191D01*
X4604285Y41695715D01*
X4651904Y41600477D01*
X4747142Y41505239D01*
X4890000Y41457620D01*
X4985238Y41457620D01*
X5128095Y41505239D01*
X5175714Y41552858D01*
X5175714Y41886191D01*
X4985238Y41886191D01*
X5604285Y41457620D02*
X5604285Y42457620D01*
X6175714Y41457620D01*
X6175714Y42457620D01*
X6651904Y41457620D02*
X6651904Y42457620D01*
X6890000Y42457620D01*
X7032857Y42410000D01*
X7128095Y42314762D01*
X7175714Y42219524D01*
X7223333Y42029048D01*
X7223333Y41886191D01*
X7175714Y41695715D01*
X7128095Y41600477D01*
X7032857Y41505239D01*
X6890000Y41457620D01*
X6651904Y41457620D01*
X14811904Y27217620D02*
X15430952Y27217620D01*
X15097619Y26836667D01*
X15240476Y26836667D01*
X15335714Y26789048D01*
X15383333Y26741429D01*
X15430952Y26646191D01*
X15430952Y26408096D01*
X15383333Y26312858D01*
X15335714Y26265239D01*
X15240476Y26217620D01*
X14954761Y26217620D01*
X14859523Y26265239D01*
X14811904Y26312858D01*
X15716666Y27217620D02*
X16050000Y26217620D01*
X16383333Y27217620D01*
X16621428Y27217620D02*
X17240476Y27217620D01*
X16907142Y26836667D01*
X17050000Y26836667D01*
X17145238Y26789048D01*
X17192857Y26741429D01*
X17240476Y26646191D01*
X17240476Y26408096D01*
X17192857Y26312858D01*
X17145238Y26265239D01*
X17050000Y26217620D01*
X16764285Y26217620D01*
X16669047Y26265239D01*
X16621428Y26312858D01*
X4794761Y28757620D02*
X4794761Y29757620D01*
X5032857Y29757620D01*
X5175714Y29710000D01*
X5270952Y29614762D01*
X5318571Y29519524D01*
X5366190Y29329048D01*
X5366190Y29186191D01*
X5318571Y28995715D01*
X5270952Y28900477D01*
X5175714Y28805239D01*
X5032857Y28757620D01*
X4794761Y28757620D01*
X5794761Y29281429D02*
X6128095Y29281429D01*
X6270952Y28757620D02*
X5794761Y28757620D01*
X5794761Y29757620D01*
X6270952Y29757620D01*
X6556666Y29757620D02*
X7128095Y29757620D01*
X6842380Y28757620D02*
X6842380Y29757620D01*
X4985238Y38917620D02*
X4985238Y39917620D01*
X5461428Y38917620D02*
X5461428Y39917620D01*
X6032857Y38917620D01*
X6032857Y39917620D01*
X6366190Y39917620D02*
X6937619Y39917620D01*
X6651904Y38917620D02*
X6651904Y39917620D01*
X4675714Y44045239D02*
X4818571Y43997620D01*
X5056666Y43997620D01*
X5151904Y44045239D01*
X5199523Y44092858D01*
X5247142Y44188096D01*
X5247142Y44283334D01*
X5199523Y44378572D01*
X5151904Y44426191D01*
X5056666Y44473810D01*
X4866190Y44521429D01*
X4770952Y44569048D01*
X4723333Y44616667D01*
X4675714Y44711905D01*
X4675714Y44807143D01*
X4723333Y44902381D01*
X4770952Y44950000D01*
X4866190Y44997620D01*
X5104285Y44997620D01*
X5247142Y44950000D01*
X5675714Y43997620D02*
X5675714Y44997620D01*
X5913809Y44997620D01*
X6056666Y44950000D01*
X6151904Y44854762D01*
X6199523Y44759524D01*
X6247142Y44569048D01*
X6247142Y44426191D01*
X6199523Y44235715D01*
X6151904Y44140477D01*
X6056666Y44045239D01*
X5913809Y43997620D01*
X5675714Y43997620D01*
X6628095Y44283334D02*
X7104285Y44283334D01*
X6532857Y43997620D02*
X6866190Y44997620D01*
X7199523Y43997620D01*
X4699523Y46585239D02*
X4842380Y46537620D01*
X5080476Y46537620D01*
X5175714Y46585239D01*
X5223333Y46632858D01*
X5270952Y46728096D01*
X5270952Y46823334D01*
X5223333Y46918572D01*
X5175714Y46966191D01*
X5080476Y47013810D01*
X4890000Y47061429D01*
X4794761Y47109048D01*
X4747142Y47156667D01*
X4699523Y47251905D01*
X4699523Y47347143D01*
X4747142Y47442381D01*
X4794761Y47490000D01*
X4890000Y47537620D01*
X5128095Y47537620D01*
X5270952Y47490000D01*
X6270952Y46632858D02*
X6223333Y46585239D01*
X6080476Y46537620D01*
X5985238Y46537620D01*
X5842380Y46585239D01*
X5747142Y46680477D01*
X5699523Y46775715D01*
X5651904Y46966191D01*
X5651904Y47109048D01*
X5699523Y47299524D01*
X5747142Y47394762D01*
X5842380Y47490000D01*
X5985238Y47537620D01*
X6080476Y47537620D01*
X6223333Y47490000D01*
X6270952Y47442381D01*
X7175714Y46537620D02*
X6699523Y46537620D01*
X6699523Y47537620D01*
X14761904Y46595239D02*
X14904761Y46547620D01*
X15142857Y46547620D01*
X15238095Y46595239D01*
X15285714Y46642858D01*
X15333333Y46738096D01*
X15333333Y46833334D01*
X15285714Y46928572D01*
X15238095Y46976191D01*
X15142857Y47023810D01*
X14952380Y47071429D01*
X14857142Y47119048D01*
X14809523Y47166667D01*
X14761904Y47261905D01*
X14761904Y47357143D01*
X14809523Y47452381D01*
X14857142Y47500000D01*
X14952380Y47547620D01*
X15190476Y47547620D01*
X15333333Y47500000D01*
X15714285Y46595239D02*
X15857142Y46547620D01*
X16095238Y46547620D01*
X16190476Y46595239D01*
X16238095Y46642858D01*
X16285714Y46738096D01*
X16285714Y46833334D01*
X16238095Y46928572D01*
X16190476Y46976191D01*
X16095238Y47023810D01*
X15904761Y47071429D01*
X15809523Y47119048D01*
X15761904Y47166667D01*
X15714285Y47261905D01*
X15714285Y47357143D01*
X15761904Y47452381D01*
X15809523Y47500000D01*
X15904761Y47547620D01*
X16142857Y47547620D01*
X16285714Y47500000D01*
X17142857Y47214286D02*
X17142857Y46547620D01*
X16904761Y47595239D02*
X16666666Y46880953D01*
X17285714Y46880953D01*
X14761904Y44045239D02*
X14904761Y43997620D01*
X15142857Y43997620D01*
X15238095Y44045239D01*
X15285714Y44092858D01*
X15333333Y44188096D01*
X15333333Y44283334D01*
X15285714Y44378572D01*
X15238095Y44426191D01*
X15142857Y44473810D01*
X14952380Y44521429D01*
X14857142Y44569048D01*
X14809523Y44616667D01*
X14761904Y44711905D01*
X14761904Y44807143D01*
X14809523Y44902381D01*
X14857142Y44950000D01*
X14952380Y44997620D01*
X15190476Y44997620D01*
X15333333Y44950000D01*
X15714285Y44045239D02*
X15857142Y43997620D01*
X16095238Y43997620D01*
X16190476Y44045239D01*
X16238095Y44092858D01*
X16285714Y44188096D01*
X16285714Y44283334D01*
X16238095Y44378572D01*
X16190476Y44426191D01*
X16095238Y44473810D01*
X15904761Y44521429D01*
X15809523Y44569048D01*
X15761904Y44616667D01*
X15714285Y44711905D01*
X15714285Y44807143D01*
X15761904Y44902381D01*
X15809523Y44950000D01*
X15904761Y44997620D01*
X16142857Y44997620D01*
X16285714Y44950000D01*
X16619047Y44997620D02*
X17238095Y44997620D01*
X16904761Y44616667D01*
X17047619Y44616667D01*
X17142857Y44569048D01*
X17190476Y44521429D01*
X17238095Y44426191D01*
X17238095Y44188096D01*
X17190476Y44092858D01*
X17142857Y44045239D01*
X17047619Y43997620D01*
X16761904Y43997620D01*
X16666666Y44045239D01*
X16619047Y44092858D01*
X14761904Y41505239D02*
X14904761Y41457620D01*
X15142857Y41457620D01*
X15238095Y41505239D01*
X15285714Y41552858D01*
X15333333Y41648096D01*
X15333333Y41743334D01*
X15285714Y41838572D01*
X15238095Y41886191D01*
X15142857Y41933810D01*
X14952380Y41981429D01*
X14857142Y42029048D01*
X14809523Y42076667D01*
X14761904Y42171905D01*
X14761904Y42267143D01*
X14809523Y42362381D01*
X14857142Y42410000D01*
X14952380Y42457620D01*
X15190476Y42457620D01*
X15333333Y42410000D01*
X15714285Y41505239D02*
X15857142Y41457620D01*
X16095238Y41457620D01*
X16190476Y41505239D01*
X16238095Y41552858D01*
X16285714Y41648096D01*
X16285714Y41743334D01*
X16238095Y41838572D01*
X16190476Y41886191D01*
X16095238Y41933810D01*
X15904761Y41981429D01*
X15809523Y42029048D01*
X15761904Y42076667D01*
X15714285Y42171905D01*
X15714285Y42267143D01*
X15761904Y42362381D01*
X15809523Y42410000D01*
X15904761Y42457620D01*
X16142857Y42457620D01*
X16285714Y42410000D01*
X16666666Y42362381D02*
X16714285Y42410000D01*
X16809523Y42457620D01*
X17047619Y42457620D01*
X17142857Y42410000D01*
X17190476Y42362381D01*
X17238095Y42267143D01*
X17238095Y42171905D01*
X17190476Y42029048D01*
X16619047Y41457620D01*
X17238095Y41457620D01*
X14761904Y38965239D02*
X14904761Y38917620D01*
X15142857Y38917620D01*
X15238095Y38965239D01*
X15285714Y39012858D01*
X15333333Y39108096D01*
X15333333Y39203334D01*
X15285714Y39298572D01*
X15238095Y39346191D01*
X15142857Y39393810D01*
X14952380Y39441429D01*
X14857142Y39489048D01*
X14809523Y39536667D01*
X14761904Y39631905D01*
X14761904Y39727143D01*
X14809523Y39822381D01*
X14857142Y39870000D01*
X14952380Y39917620D01*
X15190476Y39917620D01*
X15333333Y39870000D01*
X15714285Y38965239D02*
X15857142Y38917620D01*
X16095238Y38917620D01*
X16190476Y38965239D01*
X16238095Y39012858D01*
X16285714Y39108096D01*
X16285714Y39203334D01*
X16238095Y39298572D01*
X16190476Y39346191D01*
X16095238Y39393810D01*
X15904761Y39441429D01*
X15809523Y39489048D01*
X15761904Y39536667D01*
X15714285Y39631905D01*
X15714285Y39727143D01*
X15761904Y39822381D01*
X15809523Y39870000D01*
X15904761Y39917620D01*
X16142857Y39917620D01*
X16285714Y39870000D01*
X17238095Y38917620D02*
X16666666Y38917620D01*
X16952380Y38917620D02*
X16952380Y39917620D01*
X16857142Y39774762D01*
X16761904Y39679524D01*
X16666666Y39631905D01*
X14478571Y33837620D02*
X14478571Y34837620D01*
X14811904Y34123334D01*
X15145238Y34837620D01*
X15145238Y33837620D01*
X15621428Y33837620D02*
X15621428Y34837620D01*
X16050000Y33885239D02*
X16192857Y33837620D01*
X16430952Y33837620D01*
X16526190Y33885239D01*
X16573809Y33932858D01*
X16621428Y34028096D01*
X16621428Y34123334D01*
X16573809Y34218572D01*
X16526190Y34266191D01*
X16430952Y34313810D01*
X16240476Y34361429D01*
X16145238Y34409048D01*
X16097619Y34456667D01*
X16050000Y34551905D01*
X16050000Y34647143D01*
X16097619Y34742381D01*
X16145238Y34790000D01*
X16240476Y34837620D01*
X16478571Y34837620D01*
X16621428Y34790000D01*
X17240476Y34837620D02*
X17430952Y34837620D01*
X17526190Y34790000D01*
X17621428Y34694762D01*
X17669047Y34504286D01*
X17669047Y34170953D01*
X17621428Y33980477D01*
X17526190Y33885239D01*
X17430952Y33837620D01*
X17240476Y33837620D01*
X17145238Y33885239D01*
X17050000Y33980477D01*
X17002380Y34170953D01*
X17002380Y34504286D01*
X17050000Y34694762D01*
X17145238Y34790000D01*
X17240476Y34837620D01*
X14764285Y28805239D02*
X14907142Y28757620D01*
X15145238Y28757620D01*
X15240476Y28805239D01*
X15288095Y28852858D01*
X15335714Y28948096D01*
X15335714Y29043334D01*
X15288095Y29138572D01*
X15240476Y29186191D01*
X15145238Y29233810D01*
X14954761Y29281429D01*
X14859523Y29329048D01*
X14811904Y29376667D01*
X14764285Y29471905D01*
X14764285Y29567143D01*
X14811904Y29662381D01*
X14859523Y29710000D01*
X14954761Y29757620D01*
X15192857Y29757620D01*
X15335714Y29710000D01*
X16335714Y28852858D02*
X16288095Y28805239D01*
X16145238Y28757620D01*
X16050000Y28757620D01*
X15907142Y28805239D01*
X15811904Y28900477D01*
X15764285Y28995715D01*
X15716666Y29186191D01*
X15716666Y29329048D01*
X15764285Y29519524D01*
X15811904Y29614762D01*
X15907142Y29710000D01*
X16050000Y29757620D01*
X16145238Y29757620D01*
X16288095Y29710000D01*
X16335714Y29662381D01*
X16764285Y28757620D02*
X16764285Y29757620D01*
X17335714Y28757620D02*
X16907142Y29329048D01*
X17335714Y29757620D02*
X16764285Y29186191D01*
X14478571Y23677620D02*
X14478571Y24677620D01*
X14811904Y23963334D01*
X15145238Y24677620D01*
X15145238Y23677620D01*
X15811904Y24677620D02*
X16002380Y24677620D01*
X16097619Y24630000D01*
X16192857Y24534762D01*
X16240476Y24344286D01*
X16240476Y24010953D01*
X16192857Y23820477D01*
X16097619Y23725239D01*
X16002380Y23677620D01*
X15811904Y23677620D01*
X15716666Y23725239D01*
X15621428Y23820477D01*
X15573809Y24010953D01*
X15573809Y24344286D01*
X15621428Y24534762D01*
X15716666Y24630000D01*
X15811904Y24677620D01*
X16621428Y23725239D02*
X16764285Y23677620D01*
X17002380Y23677620D01*
X17097619Y23725239D01*
X17145238Y23772858D01*
X17192857Y23868096D01*
X17192857Y23963334D01*
X17145238Y24058572D01*
X17097619Y24106191D01*
X17002380Y24153810D01*
X16811904Y24201429D01*
X16716666Y24249048D01*
X16669047Y24296667D01*
X16621428Y24391905D01*
X16621428Y24487143D01*
X16669047Y24582381D01*
X16716666Y24630000D01*
X16811904Y24677620D01*
X17050000Y24677620D01*
X17192857Y24630000D01*
X17621428Y23677620D02*
X17621428Y24677620D01*
X15288095Y37330000D02*
X15192857Y37377620D01*
X15050000Y37377620D01*
X14907142Y37330000D01*
X14811904Y37234762D01*
X14764285Y37139524D01*
X14716666Y36949048D01*
X14716666Y36806191D01*
X14764285Y36615715D01*
X14811904Y36520477D01*
X14907142Y36425239D01*
X15050000Y36377620D01*
X15145238Y36377620D01*
X15288095Y36425239D01*
X15335714Y36472858D01*
X15335714Y36806191D01*
X15145238Y36806191D01*
X15764285Y36377620D02*
X15764285Y37377620D01*
X16335714Y36377620D01*
X16335714Y37377620D01*
X16811904Y36377620D02*
X16811904Y37377620D01*
X17050000Y37377620D01*
X17192857Y37330000D01*
X17288095Y37234762D01*
X17335714Y37139524D01*
X17383333Y36949048D01*
X17383333Y36806191D01*
X17335714Y36615715D01*
X17288095Y36520477D01*
X17192857Y36425239D01*
X17050000Y36377620D01*
X16811904Y36377620D01*
X5128095Y23963334D02*
X5604285Y23963334D01*
X5032857Y23677620D02*
X5366190Y24677620D01*
X5699523Y23677620D01*
X6032857Y23677620D02*
X6032857Y24677620D01*
X6604285Y23677620D01*
X6604285Y24677620D01*
X14811904Y32297620D02*
X15430952Y32297620D01*
X15097619Y31916667D01*
X15240476Y31916667D01*
X15335714Y31869048D01*
X15383333Y31821429D01*
X15430952Y31726191D01*
X15430952Y31488096D01*
X15383333Y31392858D01*
X15335714Y31345239D01*
X15240476Y31297620D01*
X14954761Y31297620D01*
X14859523Y31345239D01*
X14811904Y31392858D01*
X15716666Y32297620D02*
X16050000Y31297620D01*
X16383333Y32297620D01*
X16621428Y32297620D02*
X17240476Y32297620D01*
X16907142Y31916667D01*
X17050000Y31916667D01*
X17145238Y31869048D01*
X17192857Y31821429D01*
X17240476Y31726191D01*
X17240476Y31488096D01*
X17192857Y31392858D01*
X17145238Y31345239D01*
X17050000Y31297620D01*
X16764285Y31297620D01*
X16669047Y31345239D01*
X16621428Y31392858D01*
X5128095Y32297620D02*
X5699523Y32297620D01*
X5413809Y31297620D02*
X5413809Y32297620D01*
X5937619Y32297620D02*
X6604285Y31297620D01*
X6604285Y32297620D02*
X5937619Y31297620D01*
X5723333Y33837620D02*
X5390000Y34313810D01*
X5151904Y33837620D02*
X5151904Y34837620D01*
X5532857Y34837620D01*
X5628095Y34790000D01*
X5675714Y34742381D01*
X5723333Y34647143D01*
X5723333Y34504286D01*
X5675714Y34409048D01*
X5628095Y34361429D01*
X5532857Y34313810D01*
X5151904Y34313810D01*
X6056666Y34837620D02*
X6723333Y33837620D01*
X6723333Y34837620D02*
X6056666Y33837620D01*
X9964285Y9547620D02*
X9964285Y8738096D01*
X10011904Y8642858D01*
X10059523Y8595239D01*
X10154761Y8547620D01*
X10345238Y8547620D01*
X10440476Y8595239D01*
X10488095Y8642858D01*
X10535714Y8738096D01*
X10535714Y9547620D01*
X11011904Y8547620D02*
X11011904Y9547620D01*
X11392857Y9547620D01*
X11488095Y9500000D01*
X11535714Y9452381D01*
X11583333Y9357143D01*
X11583333Y9214286D01*
X11535714Y9119048D01*
X11488095Y9071429D01*
X11392857Y9023810D01*
X11011904Y9023810D01*
D11*
X8420000Y48330000D02*
X9750000Y48330000D01*
X8420000Y47000000D02*
X8420000Y48330000D01*
X11020000Y48330000D02*
X13620000Y48330000D01*
X11020000Y45730000D02*
X11020000Y48330000D01*
X8420000Y45730000D02*
X11020000Y45730000D01*
X13620000Y48330000D02*
X13620000Y22810000D01*
X8420000Y45730000D02*
X8420000Y22810000D01*
X8420000Y22810000D02*
X13620000Y22810000D01*
D10*
X7351421Y5090000D02*
G75*
G03X7351421Y5090000I-141421J0D01*
G01*
X9258095Y49877620D02*
X9258095Y49163334D01*
X9210476Y49020477D01*
X9115238Y48925239D01*
X8972380Y48877620D01*
X8877142Y48877620D01*
X10258095Y48877620D02*
X9686666Y48877620D01*
X9972380Y48877620D02*
X9972380Y49877620D01*
X9877142Y49734762D01*
X9781904Y49639524D01*
X9686666Y49591905D01*
X10877142Y49877620D02*
X10972380Y49877620D01*
X11067619Y49830000D01*
X11115238Y49782381D01*
X11162857Y49687143D01*
X11210476Y49496667D01*
X11210476Y49258572D01*
X11162857Y49068096D01*
X11115238Y48972858D01*
X11067619Y48925239D01*
X10972380Y48877620D01*
X10877142Y48877620D01*
X10781904Y48925239D01*
X10734285Y48972858D01*
X10686666Y49068096D01*
X10639047Y49258572D01*
X10639047Y49496667D01*
X10686666Y49687143D01*
X10734285Y49782381D01*
X10781904Y49830000D01*
X10877142Y49877620D01*
X11829523Y49877620D02*
X11924761Y49877620D01*
X12020000Y49830000D01*
X12067619Y49782381D01*
X12115238Y49687143D01*
X12162857Y49496667D01*
X12162857Y49258572D01*
X12115238Y49068096D01*
X12067619Y48972858D01*
X12020000Y48925239D01*
X11924761Y48877620D01*
X11829523Y48877620D01*
X11734285Y48925239D01*
X11686666Y48972858D01*
X11639047Y49068096D01*
X11591428Y49258572D01*
X11591428Y49496667D01*
X11639047Y49687143D01*
X11686666Y49782381D01*
X11734285Y49830000D01*
X11829523Y49877620D01*
X13115238Y48877620D02*
X12543809Y48877620D01*
X12829523Y48877620D02*
X12829523Y49877620D01*
X12734285Y49734762D01*
X12639047Y49639524D01*
X12543809Y49591905D01*
M02*
